<?xml version="1.0" encoding="UTF-8" standalone="no"?>
<!DOCTYPE svg PUBLIC "-//W3C//DTD SVG 1.1//EN"
 "http://www.w3.org/Graphics/SVG/1.1/DTD/svg11.dtd">
<!-- Generated by graphviz version 2.40.1 (20161225.0304)
 -->
<!-- Title: spacetime Pages: 1 -->
<svg width="1116pt" height="260pt" xmlns="http://www.w3.org/2000/svg" xmlns:xlink="http://www.w3.org/1999/xlink" viewBox="0.00 0.00 1116.03 260.00">
<g id="graph0" class="graph" transform="scale(1 1) rotate(0) translate(4 256)">
<title>spacetime</title>

<!-- building&#45;inspector -->
<a xlink:href="https://github.com/nypl-spacetime/etl-building-inspector"><g id="node1" class="node">
<title>building-inspector</title>
<ellipse fill="none" stroke="#000000" cx="489.8694" cy="-234" rx="81.6828" ry="18"/>
<text text-anchor="middle" x="489.8694" y="-229.8" font-family="monospace" font-size="14.00" fill="#000000">building-inspector</text>
</g></a>
<!-- addresses -->
<a xlink:href="https://github.com/nypl-spacetime/etl-addresses"><g id="node2" class="node">
<title>addresses</title>
<ellipse fill="none" stroke="#000000" cx="622.8694" cy="-162" rx="48.0703" ry="18"/>
<text text-anchor="middle" x="622.8694" y="-157.8" font-family="monospace" font-size="14.00" fill="#000000">addresses</text>
</g></a>
<!-- building&#45;inspector&#45;&gt;addresses -->
<g id="edge1" class="edge">
<title>building-inspector-&gt;addresses</title>
<path fill="none" stroke="#000000" d="M520.7166,-217.3008C540.3692,-206.6618 565.9198,-192.8299 586.5511,-181.661"/>
<polygon fill="#000000" stroke="#000000" points="588.2243,-184.7353 595.3521,-176.8966 584.8917,-178.5794 588.2243,-184.7353"/>
</g>
<!-- spacetime&#45;graph -->
<a xlink:href="https://github.com/nypl-spacetime/etl-spacetime-graph"><g id="node9" class="node">
<title>spacetime-graph</title>
<ellipse fill="none" stroke="#000000" cx="584.8694" cy="-18" rx="74.6976" ry="18"/>
<text text-anchor="middle" x="584.8694" y="-13.8" font-family="monospace" font-size="14.00" fill="#000000">spacetime-graph</text>
</g></a>
<!-- building&#45;inspector&#45;&gt;spacetime&#45;graph -->
<g id="edge8" class="edge">
<title>building-inspector-&gt;spacetime-graph</title>
<path fill="none" stroke="#000000" d="M409.3457,-230.7783C278.6602,-224.7139 32.2416,-209.4781 5.8694,-180 -4.7986,-168.0755 2.0225,-159.5307 5.8694,-144 14.5691,-108.8781 13.8502,-92.201 43.8694,-72 80.9119,-47.0728 358.7279,-29.4945 501.1721,-22.0189"/>
<polygon fill="#000000" stroke="#000000" points="501.3842,-25.5127 511.189,-21.4982 501.0207,-18.5222 501.3842,-25.5127"/>
</g>
<!-- link&#45;addresses -->
<a xlink:href="https://github.com/nypl-spacetime/etl-link-addresses"><g id="node6" class="node">
<title>link-addresses</title>
<ellipse fill="none" stroke="#000000" cx="129.8694" cy="-90" rx="66.0492" ry="18"/>
<text text-anchor="middle" x="129.8694" y="-85.8" font-family="monospace" font-size="14.00" fill="#000000">link-addresses</text>
</g></a>
<!-- addresses&#45;&gt;link&#45;addresses -->
<g id="edge4" class="edge">
<title>addresses-&gt;link-addresses</title>
<path fill="none" stroke="#000000" d="M577.5006,-155.8039C506.2078,-146.0108 363.6149,-126.1949 242.8694,-108 228.0262,-105.7633 212.1005,-103.2788 197.0246,-100.8876"/>
<polygon fill="#000000" stroke="#000000" points="197.1728,-97.3672 186.7469,-99.2513 196.0722,-104.2802 197.1728,-97.3672"/>
</g>
<!-- addresses&#45;&gt;spacetime&#45;graph -->
<g id="edge7" class="edge">
<title>addresses-&gt;spacetime-graph</title>
<path fill="none" stroke="#000000" d="M670.8685,-160.193C744.9553,-156.2827 881.7871,-144.2238 911.8694,-108 922.0915,-95.6911 922.2205,-84.2006 911.8694,-72 895.9926,-53.2863 756.0497,-35.5326 664.4531,-25.7705"/>
<polygon fill="#000000" stroke="#000000" points="664.6768,-22.2748 654.3649,-24.7067 663.9427,-29.2362 664.6768,-22.2748"/>
</g>
<!-- nyc&#45;streets -->
<a xlink:href="https://github.com/nypl-spacetime/etl-nyc-streets"><g id="node3" class="node">
<title>nyc-streets</title>
<ellipse fill="none" stroke="#000000" cx="754.8694" cy="-234" rx="52.7238" ry="18"/>
<text text-anchor="middle" x="754.8694" y="-229.8" font-family="monospace" font-size="14.00" fill="#000000">nyc-streets</text>
</g></a>
<!-- nyc&#45;streets&#45;&gt;addresses -->
<g id="edge2" class="edge">
<title>nyc-streets-&gt;addresses</title>
<path fill="none" stroke="#000000" d="M726.8756,-218.7307C707.1424,-207.9671 680.5332,-193.453 659.1696,-181.8001"/>
<polygon fill="#000000" stroke="#000000" points="660.8252,-178.7164 650.3702,-177.0004 657.4732,-184.8617 660.8252,-178.7164"/>
</g>
<!-- nyc&#45;streets&#45;&gt;spacetime&#45;graph -->
<g id="edge15" class="edge">
<title>nyc-streets-&gt;spacetime-graph</title>
<path fill="none" stroke="#000000" d="M790.2013,-220.6C854.8059,-194.1904 980.7797,-132.6946 928.8694,-72 911.9342,-52.199 761.8002,-34.5776 665.5487,-25.1802"/>
<polygon fill="#000000" stroke="#000000" points="665.8308,-21.6913 655.5407,-24.2137 665.1579,-28.6589 665.8308,-21.6913"/>
</g>
<!-- mapwarper -->
<a xlink:href="https://github.com/nypl-spacetime/etl-mapwarper"><g id="node4" class="node">
<title>mapwarper</title>
<ellipse fill="none" stroke="#000000" cx="1050.8694" cy="-90" rx="54.4334" ry="18"/>
<text text-anchor="middle" x="1050.8694" y="-85.8" font-family="monospace" font-size="14.00" fill="#000000">mapwarper</text>
</g></a>
<!-- group&#45;maps -->
<a xlink:href="https://github.com/nypl-spacetime/etl-group-maps"><g id="node5" class="node">
<title>group-maps</title>
<ellipse fill="none" stroke="#000000" cx="1050.8694" cy="-18" rx="57.3263" ry="18"/>
<text text-anchor="middle" x="1050.8694" y="-13.8" font-family="monospace" font-size="14.00" fill="#000000">group-maps</text>
</g></a>
<!-- mapwarper&#45;&gt;group&#45;maps -->
<g id="edge3" class="edge">
<title>mapwarper-&gt;group-maps</title>
<path fill="none" stroke="#000000" d="M1050.8694,-71.8314C1050.8694,-64.131 1050.8694,-54.9743 1050.8694,-46.4166"/>
<polygon fill="#000000" stroke="#000000" points="1054.3695,-46.4132 1050.8694,-36.4133 1047.3695,-46.4133 1054.3695,-46.4132"/>
</g>
<!-- mapwarper&#45;&gt;spacetime&#45;graph -->
<g id="edge13" class="edge">
<title>mapwarper-&gt;spacetime-graph</title>
<path fill="none" stroke="#000000" d="M1009.3445,-78.1353C1000.6439,-75.8954 991.4924,-73.7194 982.8694,-72 873.3519,-50.1629 745.0988,-34.5144 664.4124,-25.8576"/>
<polygon fill="#000000" stroke="#000000" points="664.6398,-22.3622 654.3258,-24.7853 663.8997,-29.3229 664.6398,-22.3622"/>
</g>
<!-- link&#45;addresses&#45;&gt;spacetime&#45;graph -->
<g id="edge12" class="edge">
<title>link-addresses-&gt;spacetime-graph</title>
<path fill="none" stroke="#000000" d="M180.1031,-78.0666C189.9444,-75.9074 200.209,-73.7795 209.8694,-72 312.4816,-53.098 431.9113,-36.8874 507.9185,-27.2902"/>
<polygon fill="#000000" stroke="#000000" points="508.4024,-30.7571 517.8882,-26.0379 507.5299,-23.8116 508.4024,-30.7571"/>
</g>
<!-- city&#45;directories -->
<a xlink:href="https://github.com/nypl-spacetime/etl-city-directories"><g id="node7" class="node">
<title>city-directories</title>
<ellipse fill="none" stroke="#000000" cx="83.8694" cy="-162" rx="69.4742" ry="18"/>
<text text-anchor="middle" x="83.8694" y="-157.8" font-family="monospace" font-size="14.00" fill="#000000">city-directories</text>
</g></a>
<!-- city&#45;directories&#45;&gt;link&#45;addresses -->
<g id="edge5" class="edge">
<title>city-directories-&gt;link-addresses</title>
<path fill="none" stroke="#000000" d="M95.2402,-144.2022C100.6033,-135.8079 107.1111,-125.6218 113.031,-116.3558"/>
<polygon fill="#000000" stroke="#000000" points="116.0355,-118.1539 118.47,-107.8425 110.1366,-114.3851 116.0355,-118.1539"/>
</g>
<!-- city&#45;directories&#45;&gt;spacetime&#45;graph -->
<g id="edge9" class="edge">
<title>city-directories-&gt;spacetime-graph</title>
<path fill="none" stroke="#000000" d="M69.1281,-144.3066C54.433,-124.4452 36.4929,-92.344 54.8694,-72 84.1199,-39.6179 358.2723,-25.633 500.3518,-20.519"/>
<polygon fill="#000000" stroke="#000000" points="500.4779,-24.0168 510.3481,-20.1659 500.2308,-17.0211 500.4779,-24.0168"/>
</g>
<!-- emigrant&#45;city -->
<a xlink:href="https://github.com/nypl-spacetime/etl-emigrant-city"><g id="node8" class="node">
<title>emigrant-city</title>
<ellipse fill="none" stroke="#000000" cx="234.8694" cy="-162" rx="63.117" ry="18"/>
<text text-anchor="middle" x="234.8694" y="-157.8" font-family="monospace" font-size="14.00" fill="#000000">emigrant-city</text>
</g></a>
<!-- emigrant&#45;city&#45;&gt;link&#45;addresses -->
<g id="edge6" class="edge">
<title>emigrant-city-&gt;link-addresses</title>
<path fill="none" stroke="#000000" d="M210.5164,-145.3008C196.3061,-135.5566 178.1897,-123.1339 162.7287,-112.5321"/>
<polygon fill="#000000" stroke="#000000" points="164.6808,-109.6268 154.4541,-106.8581 160.7221,-115.4 164.6808,-109.6268"/>
</g>
<!-- emigrant&#45;city&#45;&gt;spacetime&#45;graph -->
<g id="edge10" class="edge">
<title>emigrant-city-&gt;spacetime-graph</title>
<path fill="none" stroke="#000000" d="M230.6133,-143.8709C227.0301,-123.6096 224.9855,-91.1423 242.8694,-72 260.5381,-53.0881 409.2212,-35.1821 504.6415,-25.488"/>
<polygon fill="#000000" stroke="#000000" points="505.2514,-28.9444 514.851,-24.4613 504.551,-21.9795 505.2514,-28.9444"/>
</g>
<!-- enumeration&#45;districts -->
<a xlink:href="https://github.com/nypl-spacetime/etl-enumeration-districts"><g id="node10" class="node">
<title>enumeration-districts</title>
<ellipse fill="none" stroke="#000000" cx="344.8694" cy="-90" rx="93.191" ry="18"/>
<text text-anchor="middle" x="344.8694" y="-85.8" font-family="monospace" font-size="14.00" fill="#000000">enumeration-districts</text>
</g></a>
<!-- enumeration&#45;districts&#45;&gt;spacetime&#45;graph -->
<g id="edge11" class="edge">
<title>enumeration-districts-&gt;spacetime-graph</title>
<path fill="none" stroke="#000000" d="M395.474,-74.8186C434.3514,-63.1554 488.035,-47.0503 528.3231,-34.9639"/>
<polygon fill="#000000" stroke="#000000" points="529.4271,-38.2869 537.9996,-32.0609 527.4156,-31.5821 529.4271,-38.2869"/>
</g>
<!-- nyc&#45;churches -->
<a xlink:href="https://github.com/nypl-spacetime/etl-nyc-churches"><g id="node11" class="node">
<title>nyc-churches</title>
<ellipse fill="none" stroke="#000000" cx="518.8694" cy="-90" rx="62.5218" ry="18"/>
<text text-anchor="middle" x="518.8694" y="-85.8" font-family="monospace" font-size="14.00" fill="#000000">nyc-churches</text>
</g></a>
<!-- nyc&#45;churches&#45;&gt;spacetime&#45;graph -->
<g id="edge14" class="edge">
<title>nyc-churches-&gt;spacetime-graph</title>
<path fill="none" stroke="#000000" d="M534.8462,-72.5708C542.9138,-63.7698 552.8506,-52.9297 561.7363,-43.2362"/>
<polygon fill="#000000" stroke="#000000" points="564.4041,-45.5055 568.5813,-35.7689 559.244,-40.7754 564.4041,-45.5055"/>
</g>
<!-- nyc&#45;wards -->
<a xlink:href="https://github.com/nypl-spacetime/etl-nyc-wards"><g id="node12" class="node">
<title>nyc-wards</title>
<ellipse fill="none" stroke="#000000" cx="650.8694" cy="-90" rx="51.005" ry="18"/>
<text text-anchor="middle" x="650.8694" y="-85.8" font-family="monospace" font-size="14.00" fill="#000000">nyc-wards</text>
</g></a>
<!-- nyc&#45;wards&#45;&gt;spacetime&#45;graph -->
<g id="edge16" class="edge">
<title>nyc-wards-&gt;spacetime-graph</title>
<path fill="none" stroke="#000000" d="M634.8927,-72.5708C626.8251,-63.7698 616.8883,-52.9297 608.0026,-43.2362"/>
<polygon fill="#000000" stroke="#000000" points="610.4949,-40.7754 601.1576,-35.7689 605.3348,-45.5055 610.4949,-40.7754"/>
</g>
<!-- oldnyc -->
<a xlink:href="https://github.com/nypl-spacetime/etl-oldnyc"><g id="node13" class="node">
<title>oldnyc</title>
<ellipse fill="none" stroke="#000000" cx="757.8694" cy="-90" rx="37.1424" ry="18"/>
<text text-anchor="middle" x="757.8694" y="-85.8" font-family="monospace" font-size="14.00" fill="#000000">oldnyc</text>
</g></a>
<!-- oldnyc&#45;&gt;spacetime&#45;graph -->
<g id="edge17" class="edge">
<title>oldnyc-&gt;spacetime-graph</title>
<path fill="none" stroke="#000000" d="M729.302,-78.1107C702.8621,-67.1068 663.0576,-50.5408 631.9264,-37.5844"/>
<polygon fill="#000000" stroke="#000000" points="633.1451,-34.3006 622.5679,-33.6895 630.4554,-40.7633 633.1451,-34.3006"/>
</g>
<!-- surveyor -->
<a xlink:href="https://github.com/nypl-spacetime/etl-surveyor"><g id="node14" class="node">
<title>surveyor</title>
<ellipse fill="none" stroke="#000000" cx="857.8694" cy="-90" rx="44.6453" ry="18"/>
<text text-anchor="middle" x="857.8694" y="-85.8" font-family="monospace" font-size="14.00" fill="#000000">surveyor</text>
</g></a>
<!-- surveyor&#45;&gt;spacetime&#45;graph -->
<g id="edge18" class="edge">
<title>surveyor-&gt;spacetime-graph</title>
<path fill="none" stroke="#000000" d="M823.719,-78.1582C817.1601,-76.0142 810.3243,-73.8684 803.8694,-72 752.5705,-57.1514 693.777,-42.7984 650.0323,-32.6268"/>
<polygon fill="#000000" stroke="#000000" points="650.6261,-29.1718 640.0945,-30.3277 649.0483,-35.9916 650.6261,-29.1718"/>
</g>
</g>
</svg>
